<svg xmlns="http://www.w3.org/2000/svg" width="128" height="128" viewBox="0 0 128 128">
  <defs>
    <linearGradient id="g1" x1="0" y1="0" x2="1" y2="1">
      <stop offset="0%" stop-color="#4a9eff"/>
      <stop offset="50%" stop-color="#8b5cf6"/>
      <stop offset="100%" stop-color="#f59e0b"/>
    </linearGradient>
    <linearGradient id="g2" x1="0" y1="0" x2="1" y2="1">
      <stop offset="0%" stop-color="#4a9eff" stop-opacity="0.4"/>
      <stop offset="100%" stop-color="#f59e0b" stop-opacity="0.4"/>
    </linearGradient>
    <radialGradient id="glow">
      <stop offset="0%" stop-color="#8b5cf6" stop-opacity="0.3"/>
      <stop offset="60%" stop-color="#4a9eff" stop-opacity="0.1"/>
      <stop offset="100%" stop-color="#0a0a0f" stop-opacity="0"/>
    </radialGradient>
    <radialGradient id="center-glow">
      <stop offset="0%" stop-color="#f59e0b" stop-opacity="0.4"/>
      <stop offset="100%" stop-color="#8b5cf6" stop-opacity="0"/>
    </radialGradient>
  </defs>
  <rect width="128" height="128" rx="24" fill="#0a0a0f"/>
  <circle cx="64" cy="64" r="52" fill="url(#glow)"/>
  <g transform="translate(64,64)">
    <circle cx="0" cy="0" r="48" fill="none" stroke="url(#g1)" stroke-width="0.75" opacity="0.2"/>
    <g opacity="0.25" stroke="url(#g1)" stroke-width="0.75">
      <line x1="0" y1="-46" x2="0" y2="-42"/>
      <line x1="46" y1="0" x2="42" y2="0"/>
      <line x1="0" y1="46" x2="0" y2="42"/>
      <line x1="-46" y1="0" x2="-42" y2="0"/>
      <line x1="32.5" y1="-32.5" x2="29.7" y2="-29.7"/>
      <line x1="32.5" y1="32.5" x2="29.7" y2="29.7"/>
      <line x1="-32.5" y1="32.5" x2="-29.7" y2="29.7"/>
      <line x1="-32.5" y1="-32.5" x2="-29.7" y2="-29.7"/>
    </g>
    <circle cx="0" cy="0" r="38" fill="none" stroke="url(#g1)" stroke-width="0.5" opacity="0.15"/>
    <polygon points="0,-48 8,-12 0,-18 -8,-12" fill="url(#g1)"/>
    <polygon points="48,0 12,8 18,0 12,-8" fill="url(#g1)"/>
    <polygon points="0,48 -8,12 0,18 8,12" fill="url(#g1)"/>
    <polygon points="-48,0 -12,-8 -18,0 -12,8" fill="url(#g1)"/>
    <polygon points="33,-33 8,0 0,-8" fill="url(#g2)"/>
    <polygon points="33,33 0,8 8,0" fill="url(#g2)"/>
    <polygon points="-33,33 -8,0 0,8" fill="url(#g2)"/>
    <polygon points="-33,-33 0,-8 -8,0" fill="url(#g2)"/>
    <circle cx="0" cy="0" r="16" fill="url(#center-glow)"/>
    <circle cx="0" cy="0" r="12" fill="url(#g1)"/>
    <circle cx="0" cy="0" r="7" fill="#0a0a0f"/>
    <circle cx="0" cy="0" r="3" fill="url(#g1)" opacity="0.8"/>
    <text x="0" y="-34" text-anchor="middle" fill="#e8e8f0" font-family="system-ui,sans-serif" font-size="6" font-weight="600" opacity="0.5">N</text>
    <text x="0" y="37.5" text-anchor="middle" fill="#e8e8f0" font-family="system-ui,sans-serif" font-size="6" font-weight="600" opacity="0.5">S</text>
    <text x="36" y="2" text-anchor="middle" fill="#e8e8f0" font-family="system-ui,sans-serif" font-size="6" font-weight="600" opacity="0.5">E</text>
    <text x="-36" y="2" text-anchor="middle" fill="#e8e8f0" font-family="system-ui,sans-serif" font-size="6" font-weight="600" opacity="0.5">W</text>
  </g>
</svg>