<svg xmlns="http://www.w3.org/2000/svg" width="32" height="32" viewBox="0 0 32 32">
  <defs>
    <linearGradient id="g1" x1="0" y1="0" x2="1" y2="1">
      <stop offset="0%" stop-color="#4a9eff"/>
      <stop offset="50%" stop-color="#8b5cf6"/>
      <stop offset="100%" stop-color="#f59e0b"/>
    </linearGradient>
    <linearGradient id="g2" x1="0" y1="0" x2="1" y2="1">
      <stop offset="0%" stop-color="#4a9eff" stop-opacity="0.5"/>
      <stop offset="100%" stop-color="#8b5cf6" stop-opacity="0.5"/>
    </linearGradient>
  </defs>
  <rect width="32" height="32" rx="6" fill="#0a0a0f"/>
  <g transform="translate(16,16)">
    <polygon points="0,-12 2.5,-3 0,-5 -2.5,-3" fill="url(#g1)"/>
    <polygon points="12,0 3,2.5 5,0 3,-2.5" fill="url(#g1)"/>
    <polygon points="0,12 -2.5,3 0,5 2.5,3" fill="url(#g1)"/>
    <polygon points="-12,0 -3,-2.5 -5,0 -3,2.5" fill="url(#g1)"/>
    <polygon points="8,-8 2,0 0,-2" fill="url(#g2)"/>
    <polygon points="8,8 0,2 2,0" fill="url(#g2)"/>
    <polygon points="-8,8 -2,0 0,2" fill="url(#g2)"/>
    <polygon points="-8,-8 0,-2 -2,0" fill="url(#g2)"/>
    <circle cx="0" cy="0" r="3" fill="url(#g1)"/>
    <circle cx="0" cy="0" r="1.5" fill="#0a0a0f"/>
  </g>
</svg>