<svg xmlns="http://www.w3.org/2000/svg" width="48" height="48" viewBox="0 0 48 48">
  <defs>
    <linearGradient id="g1" x1="0" y1="0" x2="1" y2="1">
      <stop offset="0%" stop-color="#4a9eff"/>
      <stop offset="50%" stop-color="#8b5cf6"/>
      <stop offset="100%" stop-color="#f59e0b"/>
    </linearGradient>
    <linearGradient id="g2" x1="0" y1="0" x2="1" y2="1">
      <stop offset="0%" stop-color="#4a9eff" stop-opacity="0.45"/>
      <stop offset="100%" stop-color="#f59e0b" stop-opacity="0.45"/>
    </linearGradient>
    <radialGradient id="glow">
      <stop offset="0%" stop-color="#8b5cf6" stop-opacity="0.25"/>
      <stop offset="100%" stop-color="#8b5cf6" stop-opacity="0"/>
    </radialGradient>
  </defs>
  <rect width="48" height="48" rx="10" fill="#0a0a0f"/>
  <circle cx="24" cy="24" r="18" fill="url(#glow)"/>
  <g transform="translate(24,24)">
    <polygon points="0,-18 3.5,-4.5 0,-7 -3.5,-4.5" fill="url(#g1)"/>
    <polygon points="18,0 4.5,3.5 7,0 4.5,-3.5" fill="url(#g1)"/>
    <polygon points="0,18 -3.5,4.5 0,7 3.5,4.5" fill="url(#g1)"/>
    <polygon points="-18,0 -4.5,-3.5 -7,0 -4.5,3.5" fill="url(#g1)"/>
    <polygon points="12,-12 3,0 0,-3" fill="url(#g2)"/>
    <polygon points="12,12 0,3 3,0" fill="url(#g2)"/>
    <polygon points="-12,12 -3,0 0,3" fill="url(#g2)"/>
    <polygon points="-12,-12 0,-3 -3,0" fill="url(#g2)"/>
    <circle cx="0" cy="0" r="14" fill="none" stroke="url(#g1)" stroke-width="0.5" opacity="0.3"/>
    <circle cx="0" cy="0" r="4.5" fill="url(#g1)"/>
    <circle cx="0" cy="0" r="2.5" fill="#0a0a0f"/>
    <circle cx="0" cy="0" r="1" fill="url(#g1)" opacity="0.7"/>
  </g>
</svg>