<?xml version="1.0" encoding="UTF-8"?>
<svg xmlns="http://www.w3.org/2000/svg" viewBox="0 0 732.09 779.95">
  <!-- TikTok note icon with official brand colors: Cyan #25F4EE, Red/Pink #FE2C55 -->
  <!-- Cyan shadow (offset left-bottom) -->
  <path d="M444.03,159.88h-76.78v326.21c0,42.75-30.71,70.25-68.06,70.25s-70.55-27.5-70.55-70.25c0-49.39,38.6-75.47,90.06-70.07v-82.66c-7.47-1.25-14.94-1.66-21.17-1.66-84.25,0-154.81,67.65-154.81,151.48,0,88.82,69.72,156.88,155.22,156.88,75.12,0,154.81-55.2,154.81-159.37v-169.75c33.2,33.2,73.46,43.58,116.62,43.58v-76.37c-53.12-3.74-112.06-38.6-125.34-118.28Z" fill="#25F4EE"/>
  <!-- Red/Pink shadow (offset right-top) -->
  <path d="M464.03,139.88h-76.78v326.21c0,42.75-30.71,70.25-68.06,70.25s-70.55-27.5-70.55-70.25c0-49.39,38.6-75.47,90.06-70.07v-82.66c-7.47-1.25-14.94-1.66-21.17-1.66-84.25,0-154.81,67.65-154.81,151.48,0,88.82,69.72,156.88,155.22,156.88,75.12,0,154.81-55.2,154.81-159.37v-169.75c33.2,33.2,73.46,43.58,116.62,43.58v-76.37c-53.12-3.74-112.06-38.6-125.34-118.28Z" fill="#FE2C55"/>
  <!-- Main white note (center) -->
  <path d="M454.03,149.88h-76.78v326.21c0,42.75-30.71,70.25-68.06,70.25s-70.55-27.5-70.55-70.25c0-49.39,38.6-75.47,90.06-70.07v-82.66c-7.47-1.25-14.94-1.66-21.17-1.66-84.25,0-154.81,67.65-154.81,151.48,0,88.82,69.72,156.88,155.22,156.88,75.12,0,154.81-55.2,154.81-159.37v-169.75c33.2,33.2,73.46,43.58,116.62,43.58v-76.37c-53.12-3.74-112.06-38.6-125.34-118.28Z" fill="#fff"/>
</svg>
