<svg width="190" height="135" viewBox="0 0 190 135" fill="none" xmlns="http://www.w3.org/2000/svg">
<path d="M54.3219 0H27.1528V27.0892H54.3219V0Z" fill="#FFD800"/>
<path d="M162.984 0H135.815V27.0892H162.984V0Z" fill="#FFD800"/>
<path d="M81.482 27.0914H27.1528V54.1806H81.482V27.0914Z" fill="#FFAF00"/>
<path d="M162.99 27.0914H108.661V54.1806H162.99V27.0914Z" fill="#FFAF00"/>
<path d="M162.971 54.1678H27.1528V81.2571H162.971V54.1678Z" fill="#FF8205"/>
<path d="M54.3219 81.2592H27.1528V108.348H54.3219V81.2592Z" fill="#FA500F"/>
<path d="M108.661 81.2592H81.4917V108.348H108.661V81.2592Z" fill="#FA500F"/>
<path d="M162.984 81.2592H135.815V108.348H162.984V81.2592Z" fill="#FA500F"/>
<path d="M81.4879 108.339H-0.00146484V135.429H81.4879V108.339Z" fill="#E10500"/>
<path d="M190.159 108.339H108.661V135.429H190.159V108.339Z" fill="#E10500"/>
</svg>